<svg width="37" height="34" viewBox="0 0 37 34" fill="currentColor" xmlns="http://www.w3.org/2000/svg">
<path d="M18.4873 0H18.5243C19.9083 0 21.1918 0.463656 22.2208 1.24066H22.2266C22.9381 1.77682 23.5254 2.46033 23.9483 3.24444L30.8314 15.2232L30.873 15.3192L36.1421 24.4616C36.7029 25.4063 36.9977 26.4908 36.9977 27.5985C36.9977 28.4669 36.8173 29.2971 36.4924 30.0498L36.4982 30.0741C36.2527 30.6324 35.9236 31.1502 35.5223 31.6096C35.065 32.1445 34.519 32.5966 33.9082 32.9462C32.9969 33.4756 31.9639 33.7597 30.91 33.7706H30.8071C29.4728 33.7705 28.1749 33.3349 27.1106 32.5299H27.1048C26.3934 31.9938 25.8061 31.3103 25.3832 30.5262L18.5 18.5474L18.4584 18.4514L13.1639 9.26734C12.6171 8.3276 12.3302 7.2593 12.3326 6.17206C12.3326 5.52109 12.4343 4.88978 12.6228 4.29894L12.6332 4.26194L12.6517 4.21453C12.7303 3.97403 12.8321 3.69653 12.8321 3.69653C13.0753 3.14547 13.4 2.6341 13.7952 2.17953L13.8924 2.06506L13.9155 2.04078V2.035H13.9213L13.934 2.0165L13.9467 2.01187C14.374 1.54199 14.8717 1.14138 15.4221 0.824406C16.3334 0.294948 17.3664 0.0108977 18.4202 0H18.4873ZM6.17902 33.7718H6.08767C5.03403 33.7593 4.0014 33.4753 3.08952 32.9473C2.47439 32.597 1.93327 32.1414 1.47539 31.6107C1.0741 31.1514 0.745038 30.6336 0.499517 30.0752L0.505298 30.0509C0.170036 29.2773 -0.00197821 28.4428 1.71629e-05 27.5997C1.71629e-05 26.4492 0.313361 25.3785 0.855642 24.4628L6.12467 15.3203L6.1663 15.2243L10.8514 7.07625C10.9659 8.06947 11.2723 9.04534 11.7672 9.93566L11.8562 10.0871L17.0593 19.114V19.0966L17.1622 19.3186L17.6074 20.1014L11.6145 30.5262C11.1916 31.3103 10.6044 31.9938 9.89289 32.5299H9.88711C8.82368 33.3364 7.52525 33.7722 6.19058 33.7706L6.17902 33.7718Z" fill="currentColor"/>
</svg>
