<svg width="97" height="89" viewBox="0 0 97 89" fill="none" xmlns="http://www.w3.org/2000/svg">
<path d="M51.9165 89C76.4932 89 96.4165 69.0767 96.4165 44.5C96.4165 19.9233 76.4932 0 51.9165 0C27.3398 0 7.4165 19.9233 7.4165 44.5C7.4165 69.0767 27.3398 89 51.9165 89Z" fill="#16C165" fill-opacity="0.8"/>
<path d="M51.9164 81.1596C72.163 81.1596 88.5761 64.7465 88.5761 44.5C88.5761 24.2534 72.163 7.84036 51.9164 7.84036C31.6699 7.84036 15.2568 24.2534 15.2568 44.5C15.2568 64.7465 31.6699 81.1596 51.9164 81.1596Z" fill="#16C165"/>
<path d="M47.5746 61.4233C46.9934 61.4235 46.4182 61.3068 45.883 61.0804C45.3478 60.854 44.8635 60.5223 44.459 60.1051L30.3476 45.567C29.944 45.1592 29.6253 44.6755 29.4097 44.1437C29.1942 43.612 29.0862 43.0428 29.092 42.4691C29.0978 41.8954 29.2172 41.3285 29.4434 40.8012C29.6696 40.2739 29.9981 39.7967 30.4099 39.3971C30.8216 38.9976 31.3085 38.6836 31.8423 38.4733C32.3761 38.263 32.9464 38.1606 33.52 38.1721C34.0936 38.1835 34.6593 38.3085 35.1843 38.5399C35.7094 38.7713 36.1833 39.1044 36.5788 39.5201L47.465 50.7351L67.1557 29.0074C67.9337 28.1734 69.0087 27.679 70.1483 27.631C71.2879 27.583 72.4007 27.9854 73.2461 28.751C74.0915 29.5167 74.6018 30.5843 74.6666 31.723C74.7314 32.8618 74.3456 33.9804 73.5925 34.837L50.7978 60.0004C50.3981 60.4403 49.9123 60.7936 49.3706 61.0383C48.8288 61.2831 48.2427 61.4141 47.6483 61.4233H47.5746Z" fill="white"/>
<path d="M8.51186 0.3464L9.06159 2.58927C9.95153 6.2245 12.4772 8.78616 15.8995 10.3002C16.2228 10.5165 16.2228 10.993 15.8995 11.2081C12.4772 12.7222 9.95041 15.285 9.06159 18.9202L8.51186 21.1619C8.39921 21.6238 7.74359 21.6238 7.62981 21.1619L7.0812 18.9202C6.19126 15.285 3.66564 12.7222 0.243325 11.2081C-0.0811083 10.993 -0.0811083 10.5165 0.243325 10.3002C3.66564 8.78616 6.19126 6.2245 7.0812 2.58927L7.62981 0.3464C7.74359 -0.115467 8.39921 -0.115467 8.51186 0.3464Z" fill="#FFC738"/>
<path d="M10.7164 10.3001C8.54678 9.34035 6.73987 7.95813 5.47931 6.15121C4.21876 7.95813 2.41184 9.34035 0.243325 10.3001C-0.0811083 10.5164 -0.0811083 10.9918 0.243325 11.2081C2.41184 12.1679 4.21876 13.5501 5.47931 15.357C6.73987 13.5501 8.54678 12.1679 10.7164 11.2081C11.0397 10.9918 11.0397 10.5164 10.7164 10.3001Z" fill="#FFDF57"/>
<path d="M23.2219 11.3758L23.62 13C24.2644 15.6324 26.0933 17.4874 28.5715 18.5838C28.8056 18.7404 28.8056 19.0854 28.5715 19.2412C26.0933 20.3376 24.2636 22.1934 23.62 24.8258L23.2219 26.4492C23.1403 26.7836 22.6655 26.7836 22.5831 26.4492L22.1859 24.8258C21.5414 22.1934 19.7125 20.3376 17.2343 19.2412C16.9994 19.0854 16.9994 18.7404 17.2343 18.5838C19.7125 17.4874 21.5414 15.6324 22.1859 13L22.5831 11.3758C22.6655 11.0414 23.1403 11.0414 23.2219 11.3758Z" fill="#FFC738"/>
<path d="M24.8183 18.5836C23.2472 17.8886 21.9387 16.8876 21.0259 15.5792C20.1131 16.8876 18.8046 17.8886 17.2343 18.5836C16.9994 18.7402 16.9994 19.0844 17.2343 19.2411C18.8046 19.9361 20.1131 20.937 21.0259 22.2455C21.9387 20.937 23.2472 19.9361 24.8183 19.2411C25.0524 19.0844 25.0524 18.7402 24.8183 18.5836Z" fill="#FFDF57"/>
<path d="M6.47311 23.9364L6.79537 25.2512C7.31706 27.3822 8.79759 28.8839 10.8038 29.7714C10.9933 29.8982 10.9933 30.1775 10.8038 30.3037C8.79759 31.1912 7.3164 32.6935 6.79537 34.8245L6.47311 36.1386C6.40707 36.4094 6.02274 36.4094 5.95605 36.1386L5.63445 34.8245C5.11276 32.6935 3.63222 31.1912 1.62604 30.3037C1.43585 30.1775 1.43585 29.8982 1.62604 29.7714C3.63222 28.8839 5.11276 27.3822 5.63445 25.2512L5.95605 23.9364C6.02274 23.6657 6.40707 23.6657 6.47311 23.9364Z" fill="#FFC738"/>
<path d="M7.76544 29.7713C6.49358 29.2087 5.43436 28.3984 4.69541 27.3392C3.95646 28.3984 2.89724 29.2087 1.62604 29.7713C1.43585 29.8981 1.43585 30.1768 1.62604 30.3035C2.89724 30.8662 3.95646 31.6764 4.69541 32.7357C5.43436 31.6764 6.49358 30.8662 7.76544 30.3035C7.95497 30.1768 7.95497 29.8981 7.76544 29.7713Z" fill="#FFDF57"/>
<path d="M89.8594 83.5397L89.4331 81.8003C88.7429 78.9811 86.7843 76.9945 84.1302 75.8204C83.8795 75.6527 83.8795 75.2831 84.1302 75.1163C86.7843 73.9421 88.7438 71.9546 89.4331 69.1355L89.8594 67.397C89.9468 67.0388 90.4552 67.0388 90.5435 67.397L90.9689 69.1355C91.6591 71.9546 93.6177 73.9421 96.2717 75.1163C96.5233 75.2831 96.5233 75.6527 96.2717 75.8204C93.6177 76.9945 91.6591 78.9811 90.9689 81.8003L90.5435 83.5397C90.4552 83.8978 89.9468 83.8978 89.8594 83.5397Z" fill="#FFC738"/>
<path d="M88.1497 75.8205C89.8323 76.5649 91.2336 77.6368 92.2112 79.0381C93.1888 77.6368 94.59 76.5649 96.2717 75.8205C96.5233 75.6528 96.5233 75.2841 96.2717 75.1164C94.59 74.3721 93.1888 73.3002 92.2112 71.8989C91.2336 73.3002 89.8323 74.3721 88.1497 75.1164C87.899 75.2841 87.899 75.6528 88.1497 75.8205Z" fill="#FFDF57"/>
<path d="M78.4514 74.9862L78.1427 73.7267C77.6429 71.6852 76.2246 70.2467 74.3027 69.3964C74.1211 69.275 74.1211 69.0074 74.3027 68.8865C76.2246 68.0363 77.6435 66.5971 78.1427 64.5556L78.4514 63.2967C78.5146 63.0373 78.8828 63.0373 78.9467 63.2967L79.2548 64.5556C79.7546 66.5971 81.1729 68.0363 83.0948 68.8865C83.277 69.0074 83.277 69.275 83.0948 69.3964C81.1729 70.2467 79.7546 71.6852 79.2548 73.7267L78.9467 74.9862C78.8828 75.2456 78.5146 75.2456 78.4514 74.9862Z" fill="#FFC738"/>
<path d="M77.2134 69.3965C78.4318 69.9355 79.4465 70.7117 80.1544 71.7264C80.8623 70.7117 81.877 69.9355 83.0948 69.3965C83.277 69.275 83.277 69.0081 83.0948 68.8866C81.877 68.3476 80.8623 67.5714 80.1544 66.5567C79.4465 67.5714 78.4318 68.3476 77.2134 68.8866C77.0318 69.0081 77.0318 69.275 77.2134 69.3965Z" fill="#FFDF57"/>
<path d="M91.4405 65.2454L91.1906 64.2258C90.786 62.5732 89.6378 61.4086 88.082 60.7204C87.935 60.622 87.935 60.4054 88.082 60.3076C89.6378 59.6193 90.7865 58.4542 91.1906 56.8016L91.4405 55.7825C91.4917 55.5725 91.7898 55.5725 91.8415 55.7825L92.0909 56.8016C92.4955 58.4542 93.6436 59.6193 95.1994 60.3076C95.3469 60.4054 95.3469 60.622 95.1994 60.7204C93.6436 61.4086 92.4955 62.5732 92.0909 64.2258L91.8415 65.2454C91.7898 65.4554 91.4917 65.4554 91.4405 65.2454Z" fill="#FFC738"/>
<path d="M90.4383 60.7205C91.4246 61.1568 92.246 61.7852 92.8191 62.6066C93.3922 61.7852 94.2136 61.1568 95.1994 60.7205C95.3469 60.6221 95.3469 60.406 95.1994 60.3077C94.2136 59.8714 93.3922 59.243 92.8191 58.4216C92.246 59.243 91.4246 59.8714 90.4383 60.3077C90.2913 60.406 90.2913 60.6221 90.4383 60.7205Z" fill="#FFDF57"/>
</svg>
